<svg class="icon" width="32" height="32" viewBox="0 0 1024 1024" xmlns="http://www.w3.org/2000/svg"><path d="M704 128a32 32 0 010 64h-21.333v160.79a10.667 10.667 0 001.088 4.693l180.874 369.6c28.48 58.218 4.384 128.49-53.813 156.97A117.333 117.333 0 01759.243 896H264.747c-64.8 0-117.334-52.533-117.334-117.333a117.333 117.333 0 0111.947-51.574l180.875-369.621a10.667 10.667 0 001.088-4.693V192h-21.334a32 32 0 01-31.946-30.123L288 160a32 32 0 0132-32zm51.968 522.667H268.011L216.853 755.22A53.333 53.333 0 00264.757 832h494.496a53.333 53.333 0 0047.894-76.779l-51.168-104.554zM618.667 192H405.333v160.79a74.667 74.667 0 01-7.594 32.82l-98.411 201.057h425.323L626.26 385.6a74.667 74.667 0 01-7.594-32.8V192z"/></svg>