<svg class="icon" width="32" height="32" viewBox="0 0 1024 1024" xmlns="http://www.w3.org/2000/svg"><path d="M352 633.387L228.736 527.733a74.667 74.667 0 01-26.07-56.693V320a74.667 74.667 0 0174.667-74.667h469.334A74.667 74.667 0 01821.333 320v151.04a74.667 74.667 0 01-26.069 56.693L672 633.387V896a74.667 74.667 0 01-74.667 74.667H426.667A74.667 74.667 0 01352 896V633.387zm-74.667-324.054A10.667 10.667 0 00266.667 320v151.04a10.667 10.667 0 003.733 8.107l126.976 108.842A53.333 53.333 0 01416 628.48V896a10.667 10.667 0 0010.667 10.667h170.666A10.667 10.667 0 00608 896V628.48a53.333 53.333 0 0118.624-40.49l126.987-108.843a10.667 10.667 0 003.722-8.107V320a10.667 10.667 0 00-10.666-10.667H277.333zm202.667 320a32 32 0 0164 0v85.334a32 32 0 01-64 0v-85.334z"/></svg>