<svg class="icon" width="32" height="32" viewBox="0 0 1024 1024" xmlns="http://www.w3.org/2000/svg"><path d="M640 394.667a32 32 0 010 64H384a32 32 0 010-64h256zm0 170.666a32 32 0 010 64H384a32 32 0 010-64h256zm-522.667-128a32 32 0 01-32-32V256c0-64.8 52.534-117.333 117.334-117.333h618.666c64.8 0 117.334 52.533 117.334 117.333v149.333a32 32 0 01-32 32 74.667 74.667 0 000 149.334 32 32 0 0132 32V768c0 64.8-52.534 117.333-117.334 117.333H202.667c-64.8 0-117.334-52.533-117.334-117.333V618.667a32 32 0 0132-32 74.667 74.667 0 000-149.334zM256 512c0 65.568-45.515 120.512-106.667 134.955V768a53.333 53.333 0 0053.334 53.333h618.666A53.333 53.333 0 00874.667 768V646.955C813.515 632.512 768 577.568 768 512c0-65.568 45.515-120.512 106.667-134.955V256a53.333 53.333 0 00-53.334-53.333H202.667A53.333 53.333 0 00149.333 256v121.045C210.485 391.488 256 446.432 256 512z"/></svg>