<svg class="icon" width="32" height="32" viewBox="0 0 1024 1024" xmlns="http://www.w3.org/2000/svg"><path d="M446.272 573.44a509.653 509.653 0 01-81.92-100.65c67.787-30.475 112.139-93.462 112.139-169.793-.011-108.405-87.531-196.33-195.584-196.33-110.848 0-195.574 82.08-195.574 196.33 0 158.251 82.56 328.555 200.619 439.659 100.01 94.123 258.987 161.739 413.461 174.57.832.075 1.675.107 2.518.107h41.162a30.517 30.517 0 000-61.045h-39.872c-140.672-11.979-286.026-73.93-375.456-158.09-106.41-100.16-181.408-254.838-181.408-395.2 0-80.107 56.982-135.286 134.55-135.286 74.282 0 134.549 60.533 134.549 135.285 0 60.31-40.896 107.99-103.008 123.35a30.517 30.517 0 00-19.787 43.658c27.574 53.312 66.038 104.427 111.574 147.691 51.264 48.693 109.941 86.112 172.053 108.16a30.507 30.507 0 0040.363-24.064c10.453-67.093 61.621-114.027 126.442-114.027 74.272 0 134.55 60.544 134.55 135.286 0 25.578-7.04 50.026-20.15 71.253a30.528 30.528 0 0051.926 32.075 196.096 196.096 0 0029.248-103.328c0-108.395-87.531-196.331-195.574-196.331-83.072 0-151.21 52.384-177.621 128.864-42.368-19.552-82.773-47.541-119.2-82.144z"/></svg>