<svg class="icon" width="32" height="32" viewBox="0 0 1024 1024" xmlns="http://www.w3.org/2000/svg"><path d="M821.333 256a32 32 0 0164 0v565.333c0 64.8-52.533 117.334-117.333 117.334H256c-64.8 0-117.333-52.534-117.333-117.334V202.667c0-64.8 52.533-117.334 117.333-117.334h597.333a32 32 0 010 64H256a53.333 53.333 0 00-53.333 53.334v618.666A53.333 53.333 0 00256 874.667h512a53.333 53.333 0 0053.333-53.334V256zm-480 181.333a32 32 0 010-64h341.334a32 32 0 010 64H341.333zm0 170.667a32 32 0 010-64h213.334a32 32 0 010 64H341.333z"/></svg>