<svg class="icon" width="32" height="32" viewBox="0 0 1024 1024" xmlns="http://www.w3.org/2000/svg"><path d="M558.955 157.355a101.333 101.333 0 11175.509 101.333l-19.072 33.035H864a74.667 74.667 0 0174.624 72.106l.043 2.56v85.334A74.667 74.667 0 01864 526.389h-10.667v288c0 64.811-52.533 117.334-117.333 117.334H309.333C244.533 931.723 192 879.2 192 814.389v-288h-10.667a74.667 74.667 0 01-74.624-72.096l-.042-2.56V366.4a74.667 74.667 0 0174.666-74.667l142.123-.01-19.072-33.035a101.333 101.333 0 11175.51-101.333l39.53 68.448zM789.333 526.4H256v288a53.333 53.333 0 0053.333 53.333H736a53.333 53.333 0 0053.333-53.333v-288zM864 355.733H181.333a10.667 10.667 0 00-10.666 10.667v85.333a10.667 10.667 0 0010.666 10.667H864a10.667 10.667 0 0010.667-10.667V366.4A10.667 10.667 0 00864 355.733zM373.472 175.68a37.333 37.333 0 00-13.653 51.008l37.536 65.035h84.01l1.11-1.92-58.006-100.448a37.333 37.333 0 00-50.986-13.675zm291.904 0a37.333 37.333 0 00-50.987 13.675l-58.016 100.458 1.099 1.91h84.021l37.547-65.035a37.333 37.333 0 00-11.861-49.888z"/></svg>