<svg class="icon" width="32" height="32" viewBox="0 0 1024 1024" xmlns="http://www.w3.org/2000/svg"><path d="M384 592.021c-15.403 16.427-36.832 33.835-64.427 52.95a32 32 0 11-36.448-52.608c23.958-16.598 41.6-31.115 52.8-42.592-22.4-4.342-42.453-11.232-58.08-20.694-57.322-34.688-56.362-111.989-4.48-143.978C307.2 364.235 346.325 370.24 384 400.32V202.667H202.667A53.333 53.333 0 00149.333 256v512a53.333 53.333 0 0053.334 53.333H384V592.021zm64-12.885v242.197h373.333A53.333 53.333 0 00874.667 768V256a53.333 53.333 0 00-53.334-53.333H448v187.509c39.893-23.37 83.232-18.507 114.592 12.992l1.92 1.92 1.568 2.24c23.499 33.387 22.005 69.27-3.296 96.63-14.325 15.487-35.456 27.37-61.419 35.893 20.374 15.114 45.579 28.693 75.766 40.672a32 32 0 01-23.595 59.498c-42.368-16.81-77.621-37.056-105.536-60.885zm0-100.693a566.408 566.408 0 014.395 7.701l.074.15a255.806 255.806 0 0010.688-2.209c25.547-5.888 44.48-14.762 52.64-23.573 3.936-4.267 4.395-6.635-.373-13.888-16.875-14.699-41.92-6.773-67.424 29.227v2.592zM202.667 138.667h618.666c64.8 0 117.334 52.533 117.334 117.333v512c0 64.8-52.534 117.333-117.334 117.333H202.667c-64.8 0-117.334-52.533-117.334-117.333V256c0-64.8 52.534-117.333 117.334-117.333zm108.309 335.669c12.821 7.755 32.864 13.003 55.957 15.413a395.155 395.155 0 015.259-10.634c-28.32-38.187-51.968-47.712-65.237-39.531-11.627 7.157-11.84 25.141 4.021 34.752z"/></svg>