<svg class="icon" width="32" height="32" viewBox="0 0 1024 1024" xmlns="http://www.w3.org/2000/svg"><path d="M220.544 194.613c22.72-62.4 98.859-88.885 168.619-63.498l401.685 146.218h30.485c64.8 0 117.334 52.534 117.334 117.334V512a32 32 0 01-32 32 64 64 0 100 128 32 32 0 0132 32v117.333c0 64.8-52.534 117.334-117.334 117.334H202.667c-64.8 0-117.334-52.534-117.334-117.334V704a32 32 0 0132-32 64 64 0 100-128 32 32 0 01-32-32V394.667c0-60.587 45.92-110.454 104.854-116.683zm600.79 146.72h-41.227l-.064.16-.47-.17-576.906.01a53.333 53.333 0 00-53.334 53.334v89.365c55.211 14.208 96 64.32 96 123.968s-40.789 109.76-96 123.968v89.365a53.333 53.333 0 0053.334 53.334h618.666a53.333 53.333 0 0053.334-53.334v-89.365c-55.211-14.208-96-64.32-96-123.968s40.789-109.76 96-123.968v-89.365a53.333 53.333 0 00-53.334-53.334zM640.042 646.72a32 32 0 010 64h-256a32 32 0 010-64zm0-149.333a32 32 0 010 64h-256a32 32 0 010-64zM367.264 191.253c-38.933-14.165-77.056-.917-86.581 25.248l-22.144 60.822h345.194z"/></svg>