<svg class="icon" width="32" height="32" viewBox="0 0 1024 1024" xmlns="http://www.w3.org/2000/svg"><path d="M288 384v-74.667c0-123.722 100.267-224 224-224s224 100.224 224 224V384h10.677C811.445 384 864 436.597 864 501.333v320c0 64.822-52.47 117.334-117.323 117.334H277.333C212.555 938.667 160 886.069 160 821.333v-320C160 436.512 212.47 384 277.323 384H288zm64 0h320v-74.667c0-88.426-71.605-160-160-160-88.384 0-160 71.627-160 160V384zM224 501.333v320c0 29.398 23.915 53.334 53.323 53.334h469.344A53.27 53.27 0 00800 821.333v-320C800 471.936 776.085 448 746.677 448H277.333A53.27 53.27 0 00224 501.333z"/></svg>