<svg class="icon" width="32" height="32" viewBox="0 0 1024 1024" xmlns="http://www.w3.org/2000/svg"><path d="M512 85.333c235.637 0 426.667 191.03 426.667 426.667S747.637 938.667 512 938.667 85.333 747.637 85.333 512 276.363 85.333 512 85.333zm0 64c-200.299 0-362.667 162.368-362.667 362.667S311.701 874.667 512 874.667 874.667 712.299 874.667 512 712.299 149.333 512 149.333zm21.141 132.299a54.763 54.763 0 0129.312 29.75l37.366 91.455 96.693 7.894c30.123 2.453 52.352 29.013 49.984 59.125a55.104 55.104 0 01-18.677 37.205l-74.08 64.598 22.666 96.746c6.88 29.334-11.008 58.944-40.309 66.059a54.219 54.219 0 01-41.44-6.656L512 676.416l-82.667 51.392a54.325 54.325 0 01-75.338-18.347 55.317 55.317 0 01-6.4-41.056l22.666-96.746-74.08-64.598a55.253 55.253 0 01-5.909-77.098 54.421 54.421 0 0137.216-19.243l96.693-7.893 37.366-91.446c11.498-28.128 43.584-41.6 71.594-29.749zM512 357.109l-30.72 75.179a54.592 54.592 0 01-46.037 33.856l-81.024 6.613 62.165 54.198a55.21 55.21 0 0117.387 54.186l-18.806 80.235 68.374-42.507a54.219 54.219 0 0157.312 0l68.373 42.507-18.795-80.235a55.21 55.21 0 0117.387-54.186l62.165-54.198-81.024-6.613a54.592 54.592 0 01-46.048-33.856L512 357.109z"/></svg>