<svg class="icon" width="32" height="32" viewBox="0 0 1024 1024" xmlns="http://www.w3.org/2000/svg"><path d="M544 661.333a32 32 0 01-64 0V362.667a32 32 0 0164 0v298.666zm160 0a32 32 0 01-64 0V490.667a32 32 0 0164 0v170.666zm-320 0a32 32 0 01-64 0V448a32 32 0 0164 0v213.333zM202.667 138.667h618.666c64.8 0 117.334 52.533 117.334 117.333v512c0 64.8-52.534 117.333-117.334 117.333H202.667c-64.8 0-117.334-52.533-117.334-117.333V256c0-64.8 52.534-117.333 117.334-117.333zm0 64A53.333 53.333 0 00149.333 256v512a53.333 53.333 0 0053.334 53.333h618.666A53.333 53.333 0 00874.667 768V256a53.333 53.333 0 00-53.334-53.333H202.667z"/></svg>