<svg class="icon" width="32" height="32" viewBox="0 0 1024 1024" xmlns="http://www.w3.org/2000/svg"><path d="M177.739 652.95a364.075 364.075 0 00153.568 173.567V515.691L192.49 645.152c-4.299 4.01-9.398 6.613-14.752 7.808zm-19.99-62.923l209.707-195.563h-196.79c-.618 0-1.237-.01-1.845-.053A362.187 362.187 0 00149.333 512c0 26.784 2.902 52.907 8.416 78.027zm302.08-195.563a32.064 32.064 0 01-5.152 6.187l-62.112 57.909a31.79 31.79 0 012.731 12.95v79.54a31.889 31.889 0 019.803 7.009l67.573 70.848h90.57l68.3-72.939v-95.872l-68.182-66.827a32.096 32.096 0 01-8.693 1.195h-94.838zm-64.597 461.003A362.219 362.219 0 00512 874.667c32.768 0 64.523-4.342 94.72-12.491L395.307 640.523v212.81c0 .715-.032 1.419-.075 2.134zm275.467-17.27a364.267 364.267 0 00155.69-145.28H533.707l131.946 138.347a32.591 32.591 0 015.046 6.933zm184.693-209.216A362.208 362.208 0 00874.667 512c0-36.661-5.44-72.053-15.552-105.408L650.912 628.907h202.421c.694 0 1.376.021 2.059.064zm-657.43-298.517h301.313L359.54 193.525a31.979 31.979 0 01-5.898-7.893 364.267 364.267 0 00-155.67 144.843zm220.374-168.917l213.205 208.938v-195.2c0-1.92.171-3.786.491-5.621A362.112 362.112 0 00512 149.334c-32.384 0-63.787 4.245-93.653 12.213zm277.216 285.066v41.024l134.432-143.573c.747-.8 1.547-1.557 2.347-2.261a364.373 364.373 0 00-136.779-142.667v247.488zM512 938.667c-235.637 0-426.667-191.03-426.667-426.667S276.363 85.333 512 85.333 938.667 276.363 938.667 512 747.637 938.667 512 938.667z"/></svg>