<svg class="icon" width="32" height="32" viewBox="0 0 1024 1024" xmlns="http://www.w3.org/2000/svg"><path d="M267.21 165.003c32.107-55.595 102.977-74.88 158.902-43.488l334.39 156.992h60.831c64.8 0 117.334 52.448 117.334 117.12v404.586c0 64.683-52.534 117.12-117.334 117.12H202.667c-64.8 0-117.334-52.437-117.334-117.12V395.627c0-64.342 51.99-116.566 116.331-117.11zm554.123 177.386l-63.658.022a31.872 31.872 0 01-7.595 0l-547.413-.011c-29.451 0-53.334 23.83-53.334 53.227v404.586a53.28 53.28 0 0053.334 53.238h618.666c29.451 0 53.334-23.83 53.334-53.227V395.627a53.28 53.28 0 00-53.334-53.238zM589.536 478.251a32.021 32.021 0 0142.368-15.862 31.915 31.915 0 0115.893 42.294l-106.666 234.24c-11.371 24.96-46.891 24.96-58.262 0l-106.666-234.24a31.915 31.915 0 0115.893-42.294 32.021 32.021 0 0142.368 15.862L512 648.5zm-194.09-300.683a53.28 53.28 0 00-72.811 19.435l-47.062 81.504h334.614l-212.342-99.68a32.064 32.064 0 01-1.216-.608z"/></svg>