<svg class="icon" width="32" height="32" viewBox="0 0 1024 1024" xmlns="http://www.w3.org/2000/svg"><path d="M821.333 85.333c64.8 0 117.334 52.534 117.334 117.334V352c0 64.8-52.534 117.333-117.334 117.333H800v437.334c0 26.368-30.101 41.418-51.2 25.6l-66.133-49.6-59.734 44.8a42.667 42.667 0 01-51.2 0L512 882.667l-59.733 44.8a42.667 42.667 0 01-51.2 0l-59.734-44.8-66.133 49.6c-21.099 15.818-51.2.768-51.2-25.6V469.333h-21.333c-63.776 0-115.659-50.88-117.291-114.261L85.333 352V202.667c0-64.8 52.534-117.334 117.334-117.334zm-96 213.334H298.667A10.667 10.667 0 00288 309.333v533.334l27.733-20.8a42.667 42.667 0 0151.2 0l59.734 44.8 59.733-44.8a42.667 42.667 0 0151.2 0l59.733 44.8 59.734-44.8a42.667 42.667 0 0151.2 0l27.733 20.8V309.333a10.667 10.667 0 00-10.667-10.666zM543.98 588.98a32 32 0 110 64h-128a32 32 0 110-64zm64.032-138.666a32 32 0 010 64H415.989a32 32 0 010-64zm213.322-300.982H202.667a53.333 53.333 0 00-53.334 53.334V352a53.333 53.333 0 0053.334 53.333H224v-96a74.667 74.667 0 0174.667-74.666h426.666A74.667 74.667 0 01800 309.333v96h21.333a53.333 53.333 0 0053.28-51.018l.054-2.315V202.667a53.333 53.333 0 00-53.334-53.334z"/></svg>