<svg class="icon" width="32" height="32" viewBox="0 0 1024 1024" xmlns="http://www.w3.org/2000/svg"><path d="M725.333 170.667h74.71c64.81 0 117.29 52.522 117.29 117.429v511.797c0 64.864-52.501 117.44-117.29 117.44H223.957c-64.81 0-117.29-52.522-117.29-117.429V288.107c0-64.864 52.501-117.44 117.29-117.44h74.71v-32a32 32 0 0164 0v32h298.666v-32a32 32 0 0164 0v32zm0 64v32a32 32 0 01-64 0v-32H362.667v32a32 32 0 01-64 0v-32h-74.71a53.355 53.355 0 00-53.29 53.429v511.797a53.301 53.301 0 0053.29 53.44h576.086a53.355 53.355 0 0053.29-53.429V288.107a53.301 53.301 0 00-53.29-53.44h-74.71z"/></svg>