<svg class="icon" width="32" height="32" viewBox="0 0 1024 1024" xmlns="http://www.w3.org/2000/svg"><path d="M693.333 170.667a32 32 0 010-64h149.334a74.667 74.667 0 0174.666 74.666v149.334a32 32 0 01-64 0V181.333a10.667 10.667 0 00-10.666-10.666H693.333zm160 522.666a32 32 0 0164 0v149.334a74.667 74.667 0 01-74.666 74.666H693.333a32 32 0 010-64h149.334a10.667 10.667 0 0010.666-10.666V693.333zm-522.666 160a32 32 0 010 64H181.333a74.667 74.667 0 01-74.666-74.666V693.333a32 32 0 0164 0v149.334a10.667 10.667 0 0010.666 10.666h149.334zm-160-522.666a32 32 0 01-64 0V181.333a74.667 74.667 0 0174.666-74.666h149.334a32 32 0 010 64H181.333a10.667 10.667 0 00-10.666 10.666v149.334zM800 480a32 32 0 010 64H224a32 32 0 010-64h576z"/></svg>