<svg class="icon" width="32" height="32" viewBox="0 0 1024 1024" xmlns="http://www.w3.org/2000/svg"><path d="M646.037 511.51l224.875-307.382a74.741 74.741 0 00-16.075-104.363 74.485 74.485 0 00-44.064-14.432H213.227c-41.174 0-74.56 33.43-74.56 74.667a74.727 74.727 0 0014.41 44.128l224.886 307.381v395.158c0 17.674 14.304 32 31.957 32a31.979 31.979 0 0031.947-32V501.035a32.08 32.08 0 00-6.176-18.912L204.629 166.304a10.677 10.677 0 018.598-16.97h597.546a10.667 10.667 0 018.587 16.97L588.299 482.123a32.032 32.032 0 00-6.176 18.912v315.413c0 17.675 14.304 32 31.957 32a31.979 31.979 0 0031.957-32V511.509z"/></svg>