<svg class="icon" width="32" height="32" viewBox="0 0 1024 1024" xmlns="http://www.w3.org/2000/svg"><path d="M565.333 779.915l51.446-54.912a31.733 31.733 0 0145.226-1.227 32.64 32.64 0 011.216 45.77l-97.418 104a37.035 37.035 0 01-52.822 1.398L404.62 770.741a32.64 32.64 0 01-1.152-45.77 31.733 31.733 0 0145.248-1.174l52.618 50.624V512.075c0-17.878 14.326-32.374 32-32.374s32 14.507 32 32.374v267.84zM512 138.667c123.019 0 228.213 86.709 259.424 206.88 92.875 1.6 167.243 80.544 167.243 177.141 0 97.6-75.915 177.173-170.134 177.173-17.674 0-32-14.496-32-32.373 0-17.877 14.326-32.373 32-32.373 58.358 0 106.134-50.08 106.134-112.427 0-62.336-47.776-112.416-106.134-112.416-5.856 0-11.626.501-17.301 1.483-17.621 3.05-34.304-9.099-37.024-26.987C698.347 280.693 612.715 203.424 512 203.424c-73.835 0-140.928 41.536-177.376 107.861a31.915 31.915 0 01-30.123 16.576 140.373 140.373 0 00-9.568-.32c-80.149 0-145.6 68.587-145.6 153.782 0 85.184 65.451 153.792 145.6 153.792 17.675 0 32 14.496 32 32.373 0 17.877-14.325 32.373-32 32.373-116.021 0-209.6-98.09-209.6-218.538 0-118.315 90.294-215.062 203.456-218.454C338.091 186.24 421.013 138.667 512 138.667z"/></svg>