<svg class="icon" width="32" height="32" viewBox="0 0 1024 1024" xmlns="http://www.w3.org/2000/svg"><path d="M395.765 586.57H224.032c-22.421 0-37.888-22.442-29.91-43.38L364.769 95.274a32 32 0 0129.899-20.608h287.957c22.72 0 38.208 23.018 29.632 44.064l-99.36 243.882h187.05c27.51 0 42.187 32.427 24.043 53.099l-458.602 522.56c-22.294 25.408-63.627 3.392-54.976-29.28l85.354-322.421zm20.95-447.903L270.453 522.58h166.87a32 32 0 0130.933 40.182l-61.13 230.954L729.3 426.603H565.312c-22.72 0-38.208-23.019-29.632-44.064l99.36-243.883H416.715z"/></svg>