<svg class="icon" width="32" height="32" viewBox="0 0 1024 1024" xmlns="http://www.w3.org/2000/svg"><path d="M512 938.667c-235.637 0-426.667-191.03-426.667-426.667S276.363 85.333 512 85.333 938.667 276.363 938.667 512 747.637 938.667 512 938.667zm0-64c200.299 0 362.667-162.368 362.667-362.667S712.299 149.333 512 149.333 149.333 311.701 149.333 512 311.701 874.667 512 874.667zM368.864 684.309a32 32 0 1140.917-49.205A159.19 159.19 0 00512 672c37.888 0 73.675-13.173 102.187-36.885a32 32 0 0140.917 49.216A223.179 223.179 0 01512 736a223.179 223.179 0 01-143.136-51.69z"/></svg>