<svg class="icon" width="32" height="32" viewBox="0 0 1024 1024" xmlns="http://www.w3.org/2000/svg"><path d="M944.48 552.459L762.123 883.125a73.792 73.792 0 01-64.566 38.326H335.424a73.792 73.792 0 01-64.565-38.326L88.5 552.46a75.339 75.339 0 010-72.683L270.86 149.109a73.792 73.792 0 0164.565-38.325h362.133a73.792 73.792 0 0164.566 38.325L944.48 479.776a75.339 75.339 0 010 72.683zm-55.99-31.147a10.773 10.773 0 000-10.379L706.454 180.267a10.517 10.517 0 00-9.205-5.483H335.733a10.517 10.517 0 00-9.205 5.483L144.491 510.933a10.773 10.773 0 000 10.379l182.037 330.667a10.517 10.517 0 009.205 5.472h361.515a10.517 10.517 0 009.205-5.472l182.038-330.667zM513.74 682.667c-94.262 0-170.667-76.406-170.667-170.667s76.405-170.667 170.667-170.667c94.25 0 170.666 76.406 170.666 170.667S607.99 682.667 513.74 682.667zm0-64c58.912 0 106.666-47.755 106.666-106.667S572.651 405.333 513.74 405.333 407.072 453.088 407.072 512s47.755 106.667 106.667 106.667z"/></svg>