<svg class="icon" width="32" height="32" viewBox="0 0 1024 1024" xmlns="http://www.w3.org/2000/svg"><path d="M878.08 731.275a32 32 0 01-54.88-32.939A360.79 360.79 0 00874.667 512c0-200.299-162.368-362.667-362.667-362.667S149.333 311.701 149.333 512 311.701 874.667 512 874.667a360.79 360.79 0 00186.315-51.446 32 32 0 0132.928 54.88A424.779 424.779 0 01512 938.667c-235.637 0-426.667-191.03-426.667-426.667S276.363 85.333 512 85.333 938.667 276.363 938.667 512c0 78.293-21.152 153.568-60.587 219.275zM555.232 512l86.475 86.475a30.57 30.57 0 11-43.232 43.232L512 555.232l-86.475 86.475a30.57 30.57 0 11-43.232-43.232L468.768 512l-86.475-86.475a30.57 30.57 0 1143.232-43.232L512 468.768l86.475-86.475a30.57 30.57 0 1143.232 43.232L555.232 512z"/></svg>