<svg class="icon" width="32" height="32" viewBox="0 0 1024 1024" xmlns="http://www.w3.org/2000/svg"><path d="M256 85.333h512c64.8 0 117.333 52.534 117.333 117.334v618.666c0 64.8-52.533 117.334-117.333 117.334H256c-64.8 0-117.333-52.534-117.333-117.334V202.667c0-64.8 52.533-117.334 117.333-117.334zm0 64a53.333 53.333 0 00-53.333 53.334v618.666A53.333 53.333 0 00256 874.667h512a53.333 53.333 0 0053.333-53.334V202.667A53.333 53.333 0 00768 149.333H256zM426.667 768a32 32 0 010-64h170.666a32 32 0 010 64H426.667z"/></svg>