<svg class="icon" width="32" height="32" viewBox="0 0 1024 1024" xmlns="http://www.w3.org/2000/svg"><path d="M822.496 473.152a32 32 0 00-31.392 55.776l97.45 54.848c20.32 11.435 45.654-2.005 47.595-25.248 1.675-20.16 2.518-35.573 2.518-46.528 0-235.637-191.03-426.667-426.667-426.667S85.333 276.363 85.333 512 276.363 938.667 512 938.667c144.107 0 276.053-72.032 354.752-189.536a32 32 0 10-53.173-35.616C746.645 813.46 634.539 874.667 512 874.667c-200.299 0-362.667-162.368-362.667-362.667S311.701 149.333 512 149.333c197.099 0 357.472 157.227 362.539 353.11l-52.043-29.291z"/></svg>