<svg class="icon" width="32" height="32" viewBox="0 0 1024 1024" xmlns="http://www.w3.org/2000/svg"><path d="M512 938.667c-235.637 0-426.667-191.03-426.667-426.667S276.363 85.333 512 85.333 938.667 276.363 938.667 512 747.637 938.667 512 938.667zm0-64c200.299 0 362.667-162.368 362.667-362.667S712.299 149.333 512 149.333 149.333 311.701 149.333 512 311.701 874.667 512 874.667zm8.213-265.675l-81.429-88.704-95.755 99.264a32 32 0 11-46.058-44.437L416.33 451.38a32 32 0 0146.613.576l81.792 89.11 136.608-136.992a32 32 0 1145.312 45.184L566.443 609.94a32 32 0 01-46.24-.96z"/></svg>