<svg class="icon" width="32" height="32" viewBox="0 0 1024 1024" xmlns="http://www.w3.org/2000/svg"><path d="M518.965 847.499c-21.29 3.84-43.232 5.834-65.632 5.834a366.4 366.4 0 01-189.002-52.181 2118.4 2118.4 0 00-15.307-8.981l-86.944 23.712c-23.893 6.506-45.813-15.403-39.296-39.296l23.68-86.848c-8.821-15.008-14.656-25.152-17.632-30.71a366.485 366.485 0 01-43.499-173.696c0-203.242 164.758-368 368-368 185.515 0 338.966 137.27 364.32 315.776a255.85 255.85 0 01121.014 217.558c0 42.709-10.496 83.978-30.262 120.842-1.792 3.339-4.992 8.928-9.696 16.96l14.614 53.558c6.506 23.893-15.403 45.813-39.296 39.296l-53.643-14.635-6.23 3.67a254.933 254.933 0 01-131.487 36.309 255.061 255.061 0 01-163.702-59.168zm79.862-24.043a191.36 191.36 0 0083.84 19.21 190.933 190.933 0 0098.57-27.2c2.208-1.322 8.288-4.874 18.518-10.837a32 32 0 0124.522-3.21l12.566 3.424-3.424-12.566a32 32 0 013.338-24.725A996.672 996.672 0 00852 741.259a190.997 190.997 0 0022.667-90.592 191.68 191.68 0 00-54.635-134.187c-11.573 138.09-99.381 254.485-221.205 306.987zm-387.051-129.92l-12.512 45.867 45.867-12.512a32 32 0 0124.522 3.221c15.254 8.885 24.374 14.219 27.595 16.15a302.4 302.4 0 00156.085 43.071c167.894 0 304-136.106 304-304s-136.106-304-304-304-304 136.107-304 304c0 50.795 12.448 99.712 35.904 143.456 3.104 5.792 10.934 19.307 23.2 40.022a32 32 0 013.339 24.725zm374.89-320.203a32 32 0 010 64H320a32 32 0 010-64h266.667zm-128 160a32 32 0 010 64H320a32 32 0 010-64h138.667z"/></svg>