<svg class="icon" width="32" height="32" viewBox="0 0 1024 1024" xmlns="http://www.w3.org/2000/svg"><path d="M544 789.333h105.173a10.667 10.667 0 0010.667-10.666v-.363L656.608 684a32 32 0 0114.293-27.765C750.933 603.189 800 513.792 800 416c0-159.061-128.939-288-288-288S224 256.939 224 416c0 97.813 49.099 187.232 129.141 240.267a32 32 0 0114.315 25.578l3.339 97.184a10.667 10.667 0 0010.666 10.304H480v-216.64l-76.64-81.429a32 32 0 0146.613-43.861l63.36 67.328 72.694-68.662a32 32 0 0143.946 46.528L544 573.792v215.541zM864 416a351.53 351.53 0 01-142.827 283.147l2.635 76.96a74.667 74.667 0 01-74.635 77.226H381.44a74.667 74.667 0 01-74.624-72.106l-2.784-81.195A351.541 351.541 0 01160 416c0-194.4 157.6-352 352-352s352 157.6 352 352zM416 960a32 32 0 010-64h192a32 32 0 010 64H416z"/></svg>