<svg class="icon" width="32" height="32" viewBox="0 0 1024 1024" xmlns="http://www.w3.org/2000/svg"><path d="M485.333 565.333v-42.666h-80a32 32 0 110-64h47.232l-71.818-86.187a32 32 0 1149.173-40.96L512 430.005l82.08-98.506a32 32 0 1149.173 40.981l-71.818 86.187h47.232a32 32 0 110 64h-69.334v42.666h69.334a32 32 0 110 64h-69.334V672a32 32 0 01-64 0v-42.667h-80a32 32 0 110-64h80zm337.163-92.181l52.053 29.29C869.461 306.56 709.1 149.334 512 149.334c-200.299 0-362.667 162.368-362.667 362.667S311.701 874.667 512 874.667c122.539 0 234.645-61.195 301.579-161.152a32 32 0 1153.173 35.616C788.064 866.635 656.117 938.667 512 938.667c-235.637 0-426.667-191.03-426.667-426.667S276.363 85.333 512 85.333 938.667 276.363 938.667 512c0 10.955-.854 26.357-2.518 46.528-1.93 23.243-27.274 36.683-47.594 25.248l-97.451-54.848a32 32 0 1131.392-55.787z"/></svg>