<svg class="icon" width="32" height="32" viewBox="0 0 1024 1024" xmlns="http://www.w3.org/2000/svg"><path d="M938.667 553.92V768c0 64.8-52.534 117.333-117.334 117.333H202.667c-64.8 0-117.334-52.533-117.334-117.333V256c0-64.8 52.534-117.333 117.334-117.333h618.666c64.8 0 117.334 52.533 117.334 117.333v297.92zm-64-74.624V256a53.333 53.333 0 00-53.334-53.333H202.667A53.333 53.333 0 00149.333 256v344.48A290.09 290.09 0 01192 597.333a286.88 286.88 0 01183.296 65.846C427.029 528.384 556.906 437.333 704 437.333c65.707 0 126.997 16.779 170.667 41.963zm0 82.24c-5.334-8.32-21.131-21.653-43.648-32.917-34.251-17.131-77.974-27.286-127.019-27.286-121.77 0-229.13 76.267-270.432 188.694-2.73 7.445-7.403 20.32-13.995 38.581-7.68 21.301-34.453 28.107-51.37 13.056-16.438-14.635-28.555-25.067-36.139-31.147A222.89 222.89 0 00192 661.333a225.169 225.169 0 00-42.667 4.054V768a53.333 53.333 0 0053.334 53.333h618.666A53.333 53.333 0 00874.667 768V561.525zM320 480a96 96 0 110-192 96 96 0 010 192zm0-64a32 32 0 100-64 32 32 0 000 64z"/></svg>